<svg xmlns="http://www.w3.org/2000/svg" viewBox="0 0 1800 1200" width="1800" height="1200">
	<style>
		tspan { white-space:pre }
		path { fill: #41d1f3; filter: url(#dropshadow); } 
		#f, #i-dot { fill: #5edff7; } 
	</style>
	<filter id="dropshadow" height="130%">
	  <feGaussianBlur in="SourceAlpha" stdDeviation="5"/>
	  <feComponentTransfer>
		<feFuncA type="linear" slope="0.5"/>
	  </feComponentTransfer>
	  <feMerge> 
		<feMergeNode/>
		<feMergeNode in="SourceGraphic"/>
	  </feMerge>
	</filter>
	<path id="f" d="M181,988h149l78,-215v-108h38c0,0 61.41,-172.14 61,-172c-0.41,0.14 -100,0 -100,0v-133c0,0 24.56,1.22 82,0c57.44,-1.22 63.63,4.94 64,4c0.37,-0.94 65,-178 65,-178l-437,1z" />
	<path id="b" d="M585,384c0,0 8.06,11.41 11,24c2.94,12.59 0.81,31.91 -3,42c-3.81,10.09 -8.94,19.41 -21,29c-12.06,9.59 -24.4,10.97 -24,11c0.4,0.03 -63.11,174.52 -63,175c0.11,0.48 27.18,-1.48 54,1c26.82,2.48 43.04,11.66 52,21c8.96,9.34 16.04,24.09 19,37c2.96,12.91 1.61,21.09 1,25c-0.61,3.91 -4.68,20.09 -18,35c-13.32,14.91 -25.68,17.8 -32,20c-6.32,2.2 -27,4 -27,4h-100l-65,178c0,0 173.63,1.81 209,0c35.37,-1.81 62.62,-0.19 138,-19c75.38,-18.81 111.13,-83.19 130,-159c18.87,-75.81 -2.88,-115.19 -18,-148c-15.12,-32.81 -57.38,-60 -70,-67c-12.62,-7 -63,-23 -63,-23c0,0 3.63,2.31 48,-18c44.37,-20.31 72.62,-75.19 78,-98c5.38,-22.81 24.25,-87.38 -25,-171c-49.25,-83.62 -142,-91 -142,-91z" />
	<path id="i-dot" d="M1154,221c0,-66.36 -53.64,-120 -120,-120c-66.36,0 -120,53.64 -120,120c0,66.36 53.64,120 120,120c66.36,0 120,-53.64 120,-120z" />
	<path id="i-body" d="M919,983h235v-597h-235z" />
	<path id="t" d="M1272,386c0.46,0.19 -89,0 -89,0v153h89c0,0 -5.58,257.96 1,295c6.58,37.04 5.06,37.47 18,67c12.94,29.53 31.56,50.47 72,69c40.44,18.53 82.56,18.22 107,20c24.44,1.78 61.75,-1.73 81,-3c19.25,-1.27 66,-10 66,-10v-168c0,0 -9.82,2.7 -20,5c-10.18,2.3 -39.11,5.27 -46,5c-6.89,-0.27 -19.54,-0.3 -36,-9c-16.46,-8.7 -16,-45 -16,-45c0,0 0.04,-226.16 0,-226c-0.04,0.16 119,0 119,0v-153h-119v-197l-224,3c0,0 -3.46,193.81 -3,194z" />
</svg>